<svg xmlns="http://www.w3.org/2000/svg" viewBox="0 0 473.68 473.68"><g fill="#fff"><circle cx="236.85" cy="236.85" r="236.83"/><circle cx="236.85" cy="236.85" r="236.83"/></g><path d="M460.144 157.874l-.075-.206C429.756 72.2 351.8 9.32 258.11.972c36.248 19.872 46.834 82.832 56.11 156.9 6.335 50.593 6.376 106.34.12 157-9.196 74.47-19.827 137.874-56.228 157.83 93.848-8.362 171.927-71.46 202.12-157.156l.228-.673a236.41 236.41 0 0 0 13.219-78.03c.001-27.703-4.797-54.265-13.533-78.968z" fill="#258f44"/><path d="M326.413 157.874c-9.27-74.07-32.052-137.03-68.303-156.9C251.098.352 244.007 0 236.835 0 133.807 0 46.188 65.802 13.608 157.668a5.85 5.85 0 0 0-.075.206C4.798 182.577 0 209.14 0 236.842a236.41 236.41 0 0 0 13.219 78.03c.08.22.15.445.228.673C45.9 407.647 133.637 473.68 236.835 473.68c7.173 0 14.263-.352 21.274-.98 36.4-19.954 59.227-83.36 68.423-157.83 6.257-50.66 6.215-106.4-.12-156.997z" fill="#359846"/><circle cx="236.85" cy="236.85" r="87.25" fill="#ec1c24"/></svg>