<svg xmlns="http://www.w3.org/2000/svg" viewBox="0 0 473.681 473.681"><circle cx="236.85" cy="236.85" r="236.83" fill="#d62427"/><path d="M.001 236.842C.001 106.028 106.037 0 236.836 0c130.807 0 130.807 473.68 0 473.68C106.04 473.677.001 367.64.001 236.842z" fill="#dc3027"/><path d="M136.618 65.207l11.05 34.03h35.783l-28.947 21.02 11.058 34.03-28.945-21.027-28.943 21.027 11.057-34.03-28.944-21.02h35.773zM220.08 45.85l-3.485 11.937 10.27 7.004-12.423.363-3.478 11.944-4.2-11.7-12.43.378 9.84-7.6-4.2-11.7 10.276 7.004zm0 106.904l-3.485 11.933 10.27 7.004-12.423.367-3.478 11.94-4.2-11.708-12.43.38 9.84-7.6-4.2-11.7 10.276 6.997zm30.303-74.32l-3.485 11.937 10.273 7.004-12.426.37-3.483 11.937-4.198-11.7-12.427.378 9.832-7.6-4.194-11.7 10.278 7.004zm0 43.58l-3.485 11.937 10.273 7.004-12.426.366-3.483 11.94-4.198-11.705-12.427.378 9.832-7.6-4.194-11.702 10.278 6.997z" fill="#f8d12e"/></svg>