<svg xmlns="http://www.w3.org/2000/svg" viewBox="0 0 473.68 473.68"><circle cx="236.85" cy="236.85" r="236.83" fill="#fff"/><path d="M200.075 2.857C98.717 18.653 18.66 98.714 2.857 200.067h197.218V2.857zM2.857 273.6c15.8 101.357 95.864 181.422 197.218 197.218V273.6H2.857z" fill="#f3f4f5"/><g fill="#da1e37"><path d="M111.35 82.3h20.23v80.4h-20.23z"/><path d="M81.27 112.4h80.4v20.24h-80.4zm30.08 203.62h20.23v80.4h-20.23z"/><path d="M81.27 346.12h80.4v20.24h-80.4z"/></g><path d="M324.976 346.1h68.546v20.24H320.5c-10.2 41.12-25.833 74.7-46.883 92.768v11.7c101.35-15.807 181.407-95.864 197.203-197.2H323.092c-1.46 25.12 6.357 49.667 1.884 72.494zm-3.256-233.725h71.804v20.24h-67.6c3.93 21.387-1.387 44.168-.037 67.443H470.82c-15.8-101.35-95.857-181.407-197.203-197.2v11.7c21.903 18.82 37.938 54.403 48.102 97.82z" fill="#e4e4e4"/><g fill="#cf2028"><path d="M221.424 473.138l-5.265-.4 5.265.4zM216.16.935l5.265-.393-5.265.393zM226 .277C229.614.116 233.23 0 236.835 0c-3.64 0-7.244.108-10.845.277zm244.82 199.8H325.896c1.4 24.345 1.4 49.205 0 73.542H470.82c1.87-11.978 2.857-24.255 2.857-36.767s-.987-24.8-2.857-36.775z"/><path d="M236.835 473.677c12.513 0 24.797-.987 36.782-2.857v-11.7c-10.83 9.315-23.08 14.566-36.782 14.566zm36.782-470.82C261.632.987 249.347 0 236.835 0c13.702 0 25.95 5.258 36.782 14.566V2.857z"/><path d="M236.835 473.677c-3.6 0-7.225-.108-10.845-.27 3.6.168 7.206.27 10.845.27zm156.688-341.053v-20.24H318.26c1.54 6.582 2.943 13.335 4.214 20.24h71.05zm0 233.723v-20.24h-71.987c-1.35 6.926-2.85 13.672-4.476 20.24h76.463z"/></g><path d="M221.424.542L226 .28l-4.566.262zM226 473.408l-4.566-.27 4.566.27z" fill="#fff"/><path d="M273.617 459.115c21.05-18.077 36.674-51.647 46.883-92.768h-7.378v-20.24h11.854c4.47-22.826 7.42-47.373 8.882-72.5h-60.24v185.506zm39.505-326.49v-20.24h8.597c-10.168-43.413-26.2-78.998-48.102-97.82v185.502h60.24c-1.35-23.28-3.994-46.057-7.924-67.443H313.12z" fill="#f3f4f5"/><path d="M273.617 273.6h60.24c1.4-24.337 1.4-49.198 0-73.542h-60.24V14.566C262.787 5.262 250.536 0 236.835 0c-3.6 0-7.225.116-10.845.277l-4.566.262-5.265.393c-5.4.475-10.78 1.096-16.084 1.922v197.2H2.857A238.61 238.61 0 0 0 0 236.838a238.13 238.13 0 0 0 2.857 36.768h197.218v197.218c5.303.826 10.673 1.447 16.084 1.922l5.265.4 4.566.27c3.624.16 7.24.27 10.845.27 13.702 0 25.95-5.25 36.782-14.566V273.6zm39.505-140.976h12.812a433.31 433.31 0 0 0-4.214-20.239h-8.597l-.001 20.24zm0 233.723h7.378c1.63-6.567 3.126-13.317 4.476-20.24h-11.854v20.24z" fill="#da1e37"/><path d="M343.2 316.02h20.23v80.4H343.2zm0-233.72h20.23v80.4H343.2z" fill="#cf2028"/></svg>