<svg xmlns="http://www.w3.org/2000/svg" viewBox="0 0 473.68 473.68"><circle cx="236.85" cy="236.849" r="236.83" fill="#fff"/><path d="M460.143 157.873H314.218c6.34 50.593 6.376 106.34.123 156.995h146.113c8.53-24.438 13.22-50.682 13.22-78.026.004-27.703-4.794-54.27-13.53-78.97z" fill="#2b479d"/><path d="M314.218 157.873H460.14a1.62 1.62 0 0 0-.075-.206C429.756 72.2 351.785 9.32 258.105.972c36.256 19.872 46.846 82.832 56.113 156.9z" fill="#efecec"/><path d="M258.113 472.697c93.848-8.362 171.927-71.46 202.12-157.156l.228-.673H314.345c-9.196 74.47-19.83 137.874-56.232 157.83z" fill="#e63026"/><path d="M0 236.84a236.49 236.49 0 0 0 13.219 78.026h313.313c6.26-50.66 6.215-106.402-.116-156.995H13.534C4.798 182.573 0 209.14 0 236.84z" fill="#3757a6"/><path d="M13.608 157.668l-.075.206h312.883c-9.274-74.07-32.056-137.03-68.307-156.9-7.012-.62-14.102-.972-21.274-.972C133.806 0 46.19 65.8 13.608 157.668z" fill="#efefef"/><path d="M326.532 314.867H13.22l.228.673C45.9 407.642 133.64 473.676 236.835 473.676c7.173 0 14.263-.352 21.274-.98 36.405-19.954 59.227-83.358 68.423-157.83z" fill="#e73b36"/></svg>