<svg xmlns="http://www.w3.org/2000/svg" viewBox="0 0 473.677 473.677"><path d="M324.756 236.842h148.92C473.677 106.032 367.64 0 236.835 0c65.4 0 87.925 118.425 87.92 236.842z" fill="#3daae0"/><path d="M0 236.842h334.935C334.94 118.425 302.236 0 236.835 0 106.036 0 0 106.032 0 236.842z" fill="#44c1ef"/><path d="M319.77 236.842c0 118.417-17.53 236.835-82.936 236.835 130.807 0 236.842-106.036 236.842-236.835H319.77z" fill="#e8bd1f"/><path d="M334.935 236.842H0c0 130.8 106.036 236.835 236.835 236.835 65.4 0 98.1-118.417 98.1-236.835z" fill="#fdce0c"/></svg>